# xmcd
#
# Track frame offsets:
#  150
#  15604
#  29294
#  51759
#  66631
#  91862
#  114959
#  135581
#  156784
#  181027
#  203166
#  228956
#  248922
#  273702
#  290333
#  315281
#
# Disc length: 4326 seconds
#
# Revision: 0
# Processed by: cddbd v1.5PL3 Copyright (c) Steve Scherf et al.
# Submitted via: AltoMP3_Maker 3.0
#
DISCID=d410e410
DTITLE=Various Artist - Pico VS Jairam
DYEAR=1900
DGENRE=
TTITLE0=80 Medley
TTITLE1=Aventura Mix
TTITLE2=Rafta Rafta
TTITLE3=Sajna Ve Sajna
TTITLE4=Haye Mein Maryah
TTITLE5=Dil Pardesi Hogaya
TTITLE6=Papi Pardesi Hogaya
TTITLE7=Soca
TTITLE8=Nashe Nashe Mein Yaar
TTITLE9=Prem Dagariya
TTITLE10=Dancehall Mix
TTITLE11=Lagan Lagi
TTITLE12=Tauba Tumhare Yeh Ishare
TTITLE13=Jogi Mc
TTITLE14=Chali Ayee
TTITLE15=Underground
EXTD=
EXTT0=
EXTT1=
EXTT2=
EXTT3=
EXTT4=
EXTT5=
EXTT6=
EXTT7=
EXTT8=
EXTT9=
EXTT10=
EXTT11=
EXTT12=
EXTT13=
EXTT14=
EXTT15=
PLAYORDER=
